HIERARCHY
ROOT SpineBase
{
  OFFSET 0.000000 0.000000 0.000000
  CHANNELS 6 Xposition Yposition Zposition Zrotation Xrotation Yrotation
  JOINT SpineMid
  {
    OFFSET -0.000000 32.445731 0.000000
    CHANNELS 3 Zrotation Xrotation Yrotation
    JOINT SpineShoulder
    {
      OFFSET -0.254117 24.117436 -0.867470
      CHANNELS 3 Zrotation Xrotation Yrotation
      JOINT Neck
      {
        OFFSET -0.174862 7.967061 -0.595884
        CHANNELS 3 Zrotation Xrotation Yrotation
        JOINT Head
        {
          OFFSET -3.278301 12.008704 3.112073
          CHANNELS 3 Zrotation Xrotation Yrotation
          End Site
          {
            OFFSET 0 0 0
          }
        }
      }
      JOINT ShoulderLeft
      {
        OFFSET -8.158923 -7.343133 9.564876
        CHANNELS 3 Zrotation Xrotation Yrotation
        JOINT ElbowLeft
        {
          OFFSET -2.282207 -24.262331 5.620823
          CHANNELS 3 Zrotation Xrotation Yrotation
          JOINT WristLeft
          {
            OFFSET 4.464193 -27.606917 9.966760
            CHANNELS 3 Zrotation Xrotation Yrotation
            JOINT HandLeft
            {
              OFFSET -0.165237 -4.971703 -0.000756
              CHANNELS 3 Zrotation Xrotation Yrotation
              JOINT HandTipLeft
              {
                OFFSET 0.006325 -4.287744 -0.354036
                CHANNELS 3 Zrotation Xrotation Yrotation
                End Site
                {
                  OFFSET 0 0 0
                }
              }
              JOINT ThumbLeft
              {
                OFFSET 0.308255 -2.451590 -4.824230
                CHANNELS 3 Zrotation Xrotation Yrotation
                End Site
                {
                  OFFSET 0 0 0
                }
              }
            }
          }
        }
      }
      JOINT ShoulderRight
      {
        OFFSET 1.029662 -3.632005 -14.638917
        CHANNELS 3 Zrotation Xrotation Yrotation
        JOINT ElbowRight
        {
          OFFSET 2.441204 -24.123626 -7.054400
          CHANNELS 3 Zrotation Xrotation Yrotation
          JOINT WristRight
          {
            OFFSET -6.593171 -28.677593 -1.203560
            CHANNELS 3 Zrotation Xrotation Yrotation
            JOINT HandRight
            {
              OFFSET 0.195680 -6.926297 2.597830
              CHANNELS 3 Zrotation Xrotation Yrotation
              JOINT HandTipRight
              {
                OFFSET -1.731231 -8.231865 1.771855
                CHANNELS 3 Zrotation Xrotation Yrotation
                End Site
                {
                  OFFSET 0 0 0
                }
              }
              JOINT ThumbRight
              {
                OFFSET -8.464349 2.483775 -2.404106
                CHANNELS 3 Zrotation Xrotation Yrotation
                End Site
                {
                  OFFSET 0 0 0
                }
              }
            }
          }
        }
      }
    }
  }
  JOINT HipLeft
  {
    OFFSET -3.848514 1.021168 1.980974
    CHANNELS 3 Zrotation Xrotation Yrotation
    JOINT KneeLeft
    {
      OFFSET 5.802023 -32.637562 11.394088
      CHANNELS 3 Zrotation Xrotation Yrotation
      JOINT AnkleLeft
      {
        OFFSET 12.587718 -37.241159 -2.770153
        CHANNELS 3 Zrotation Xrotation Yrotation
        JOINT FootLeft
        {
          OFFSET -3.217620 -4.432308 -13.583579
          CHANNELS 3 Zrotation Xrotation Yrotation
          End Site
          {
            OFFSET 0 0 0
          }
        }
      }
    }
  }
  JOINT HipRight
  {
    OFFSET 1.243742 1.489928 -8.840703
    CHANNELS 3 Zrotation Xrotation Yrotation
    JOINT KneeRight
    {
      OFFSET 5.570955 -33.057828 -4.044063
      CHANNELS 3 Zrotation Xrotation Yrotation
      JOINT AnkleRight
      {
        OFFSET 7.805116 -34.893426 1.133622
        CHANNELS 3 Zrotation Xrotation Yrotation
        JOINT FootRight
        {
          OFFSET -4.788559 -7.710608 -2.437083
          CHANNELS 3 Zrotation Xrotation Yrotation
          End Site
          {
            OFFSET 0 0 0
          }
        }
      }
    }
  }
}
MOTION
Frames: 6
Frame Time: 0.033333
102.043659 77.499856 278.607744 0.000000 0.000000 64.800170 -0.000000 0.000000 -64.800170 -0.000000 0.000000 0.000000 -0.000000 0.000000 0.000000 0.000000 0.000000 0.000000 -0.000000 0.000000 0.000000 -0.000000 0.000000 0.000000 -0.000000 0.000000 0.000000 -0.000000 0.000000 0.000000 0.000000 0.000000 0.000000 0.000000 0.000000 0.000000 -0.000000 0.000000 0.000000 -0.000000 0.000000 0.000000 -0.000000 0.000000 0.000000 -0.000000 0.000000 0.000000 0.000000 0.000000 0.000000 0.000000 0.000000 0.000000 -0.000000 0.000000 -64.800170 -0.000000 0.000000 0.000000 -0.000000 0.000000 0.000000 0.000000 0.000000 0.000000 -0.000000 0.000000 -64.800170 -0.000000 0.000000 0.000000 -0.000000 0.000000 0.000000 0.000000 0.000000 0.000000
102.084791 77.581451 278.616951 0.005116 -0.034766 65.323278 0.029455 0.019163 -65.323282 -0.000000 0.000000 0.000000 -0.000000 0.000000 0.000000 0.000000 0.000000 0.000000 -0.000000 0.000000 0.000000 -0.944385 2.325312 0.054755 -2.301690 -0.661719 -0.155720 3.519525 -4.456905 0.089959 0.000000 0.000000 0.000000 0.000000 0.000000 0.000000 -0.000000 0.000000 0.000000 -0.000000 0.000000 0.000000 -1.772375 3.384981 -0.522798 -1.943978 -3.157842 -0.436676 0.000000 0.000000 0.000000 0.000000 0.000000 0.000000 0.029455 0.019163 -65.323282 -0.000000 0.000000 0.000000 2.269776 -13.516679 5.089737 0.000000 0.000000 0.000000 0.029455 0.019163 -65.323282 -0.000000 0.000000 0.000000 -1.045570 0.389930 0.091263 0.000000 0.000000 0.000000
102.112508 77.651623 278.623088 -0.001637 -0.062471 65.801551 0.057653 0.024113 -65.801564 -0.000000 0.000000 0.000000 -0.000000 0.000000 0.000000 0.000000 0.000000 0.000000 -0.000000 0.000000 0.000000 -1.652604 4.041744 0.117257 -4.095184 -1.341924 -0.359204 6.121760 -7.342668 0.219067 0.000000 0.000000 0.000000 0.000000 0.000000 0.000000 -0.000000 0.000000 0.000000 -0.000000 0.000000 0.000000 -3.333924 6.587167 -0.892564 -3.321348 -5.938875 -1.033109 0.000000 0.000000 0.000000 0.000000 0.000000 0.000000 0.057653 0.024113 -65.801564 -0.114181 -1.052328 -0.348612 7.866491 -29.607352 13.679507 0.000000 0.000000 0.000000 0.057653 0.024113 -65.801564 -0.000000 0.000000 0.000000 -1.886159 0.670003 0.188859 0.000000 0.000000 0.000000
102.126812 77.710370 278.626154 -0.020307 -0.083065 66.228868 0.084203 0.014898 -66.228894 -0.000000 0.000000 0.000000 -0.000000 0.000000 0.000000 0.000000 0.000000 0.000000 -0.000000 0.000000 0.000000 -2.126812 5.159190 0.165943 -5.408805 -2.038302 -0.549692 7.851662 -8.870531 0.304627 0.000000 0.000000 0.000000 0.000000 0.000000 0.000000 -0.000000 0.000000 0.000000 -0.000000 0.000000 0.000000 -4.610646 9.443441 -1.117670 -4.214815 -8.183978 -1.664706 0.000000 0.000000 0.000000 0.000000 0.000000 0.000000 0.084203 0.014898 -66.228894 -0.139656 -1.589919 -0.529747 17.570923 -44.468872 25.690404 0.000000 0.000000 0.000000 0.084203 0.014898 -66.228894 -0.000000 0.000000 0.000000 -2.526910 0.842965 0.289243 0.000000 0.000000 0.000000
102.127701 77.757694 278.626149 -0.050923 -0.096506 66.600223 0.108793 -0.008409 -66.600257 -0.000000 0.000000 0.000000 -0.000000 0.000000 0.000000 0.000000 0.000000 0.000000 -0.493405 1.361434 -0.237069 -1.885562 4.309529 0.379263 -6.271123 -2.747122 -0.682038 8.739913 -9.177818 0.306654 0.000000 0.000000 0.000000 0.000000 0.000000 0.000000 -0.000000 0.000000 0.000000 -0.000000 0.000000 0.000000 -5.539047 11.810954 -1.219829 -4.691917 -9.761387 -2.222655 0.000000 0.000000 0.000000 0.000000 0.000000 0.000000 0.108793 -0.008409 -66.600257 -0.144053 -2.134873 -0.714937 28.177481 -52.751747 37.617733 0.000000 0.000000 0.000000 0.108793 -0.008409 -66.600257 -0.000000 0.000000 0.000000 -2.971763 0.910944 0.390116 0.000000 0.000000 0.000000
102.115176 77.793593 278.623073 -0.093501 -0.102763 66.911904 0.131198 -0.045714 -66.911935 -0.000000 0.000000 0.000000 -0.000000 0.000000 0.000000 0.000000 0.000000 0.000000 -0.851309 2.319260 -0.399775 -1.527097 3.254774 0.509186 -6.701234 -3.460959 -0.723402 8.805635 -8.336349 0.220817 0.000000 0.000000 0.000000 0.000000 0.000000 0.000000 -0.000000 0.000000 0.000000 -0.000000 0.000000 0.000000 -6.072606 13.582622 -1.226972 -4.790664 -10.573280 -2.622705 0.000000 0.000000 0.000000 0.000000 0.000000 0.000000 0.131198 -0.045714 -66.911935 -0.127394 -2.686987 -0.903792 33.147040 -54.991637 43.027446 0.000000 0.000000 0.000000 0.131198 -0.045714 -66.911935 -0.000000 0.000000 0.000000 -3.223291 0.875321 0.490309 0.000000 0.000000 0.000000
